# Blender v2.79 (sub 0) OBJ File: ''
# www.blender.org
mtllib darf.mtl
o Cylinder.001
v -0.106545 -1.220313 1.559432
v -0.106545 0.193900 0.145219
v 0.088545 -1.206727 1.573019
v 0.088545 0.207487 0.158805
v 0.276139 -1.166488 1.613257
v 0.276139 0.247725 0.199044
v 0.449025 -1.101144 1.678601
v 0.449025 0.313069 0.264388
v 0.600562 -1.013206 1.766539
v 0.600562 0.401007 0.352325
v 0.724925 -0.906054 1.873691
v 0.724925 0.508160 0.459478
v 0.817335 -0.783805 1.995941
v 0.817335 0.630409 0.581727
v 0.874240 -0.651156 2.128589
v 0.874240 0.763057 0.714376
v 0.893455 -0.513207 2.266539
v 0.893455 0.901007 0.852325
v 0.874240 -0.375257 2.404489
v 0.874240 1.038957 0.990275
v 0.817335 -0.242609 2.537137
v 0.817335 1.171605 1.122923
v 0.724925 -0.120359 2.659386
v 0.724925 1.293854 1.245173
v 0.600562 -0.013207 2.766539
v 0.600562 1.401007 1.352325
v 0.449025 0.074731 2.854477
v 0.449025 1.488945 1.440263
v 0.276138 0.140075 2.919820
v 0.276138 1.554288 1.505607
v 0.088545 0.180313 2.960059
v 0.088545 1.594527 1.545845
v -0.106545 0.193900 2.973646
v -0.106545 1.608114 1.559432
v -0.301636 0.180313 2.960059
v -0.301636 1.594527 1.545845
v -0.489229 0.140075 2.919820
v -0.489229 1.554288 1.505607
v -0.662116 0.074731 2.854476
v -0.662116 1.488945 1.440263
v -0.813652 -0.013207 2.766539
v -0.813652 1.401007 1.352325
v -0.938015 -0.120360 2.659386
v -0.938015 1.293854 1.245173
v -1.030425 -0.242609 2.537137
v -1.030425 1.171604 1.122923
v -1.087330 -0.375258 2.404488
v -1.087330 1.038956 0.990274
v -1.106545 -0.513207 2.266538
v -1.106545 0.901006 0.852325
v -1.087330 -0.651157 2.128588
v -1.087330 0.763057 0.714375
v -1.030424 -0.783805 1.995940
v -1.030424 0.630408 0.581727
v -0.938014 -0.906055 1.873691
v -0.938014 0.508159 0.459477
v -0.813651 -1.013207 1.766538
v -0.813651 0.401006 0.352325
v -0.662114 -1.101145 1.678601
v -0.662114 0.313069 0.264387
v -0.489227 -1.166488 1.613257
v -0.489227 0.247725 0.199044
v -0.301634 -1.206727 1.573019
v -0.301634 0.207487 0.158805
vn 0.0980 -0.7037 -0.7037
vn 0.2903 -0.6767 -0.6767
vn 0.4714 -0.6236 -0.6236
vn 0.6344 -0.5466 -0.5466
vn 0.7730 -0.4486 -0.4486
vn 0.8819 -0.3333 -0.3333
vn 0.9569 -0.2053 -0.2053
vn 0.9952 -0.0693 -0.0693
vn 0.9952 0.0693 0.0693
vn 0.9569 0.2053 0.2053
vn 0.8819 0.3333 0.3333
vn 0.7730 0.4486 0.4486
vn 0.6344 0.5466 0.5466
vn 0.4714 0.6236 0.6236
vn 0.2903 0.6767 0.6767
vn 0.0980 0.7037 0.7037
vn -0.0980 0.7037 0.7037
vn -0.2903 0.6767 0.6767
vn -0.4714 0.6236 0.6236
vn -0.6344 0.5466 0.5466
vn -0.7730 0.4486 0.4486
vn -0.8819 0.3333 0.3333
vn -0.9569 0.2053 0.2053
vn -0.9952 0.0693 0.0693
vn -0.9952 -0.0693 -0.0693
vn -0.9569 -0.2053 -0.2053
vn -0.8819 -0.3333 -0.3333
vn -0.7730 -0.4486 -0.4486
vn -0.6344 -0.5466 -0.5466
vn -0.4714 -0.6236 -0.6236
vn 0.0000 0.7071 -0.7071
vn -0.2903 -0.6767 -0.6767
vn -0.0980 -0.7037 -0.7037
vn 0.0000 -0.7071 0.7071
usemtl None
s off
f 1//1 2//1 4//1 3//1
f 3//2 4//2 6//2 5//2
f 5//3 6//3 8//3 7//3
f 7//4 8//4 10//4 9//4
f 9//5 10//5 12//5 11//5
f 11//6 12//6 14//6 13//6
f 13//7 14//7 16//7 15//7
f 15//8 16//8 18//8 17//8
f 17//9 18//9 20//9 19//9
f 19//10 20//10 22//10 21//10
f 21//11 22//11 24//11 23//11
f 23//12 24//12 26//12 25//12
f 25//13 26//13 28//13 27//13
f 27//14 28//14 30//14 29//14
f 29//15 30//15 32//15 31//15
f 31//16 32//16 34//16 33//16
f 33//17 34//17 36//17 35//17
f 35//18 36//18 38//18 37//18
f 37//19 38//19 40//19 39//19
f 39//20 40//20 42//20 41//20
f 41//21 42//21 44//21 43//21
f 43//22 44//22 46//22 45//22
f 45//23 46//23 48//23 47//23
f 47//24 48//24 50//24 49//24
f 49//25 50//25 52//25 51//25
f 51//26 52//26 54//26 53//26
f 53//27 54//27 56//27 55//27
f 55//28 56//28 58//28 57//28
f 57//29 58//29 60//29 59//29
f 59//30 60//30 62//30 61//30
f 4//31 2//31 64//31 62//31 60//31 58//31 56//31 54//31 52//31 50//31 48//31 46//31 44//31 42//31 40//31 38//31 36//31 34//31 32//31 30//31 28//31 26//31 24//31 22//31 20//31 18//31 16//31 14//31 12//31 10//31 8//31 6//31
f 61//32 62//32 64//32 63//32
f 63//33 64//33 2//33 1//33
f 1//34 3//34 5//34 7//34 9//34 11//34 13//34 15//34 17//34 19//34 21//34 23//34 25//34 27//34 29//34 31//34 33//34 35//34 37//34 39//34 41//34 43//34 45//34 47//34 49//34 51//34 53//34 55//34 57//34 59//34 61//34 63//34
o Cylinder
v -0.046315 0.044021 -3.007220
v -0.046315 1.458234 -1.593006
v 0.148776 0.030434 -2.993633
v 0.148776 1.444647 -1.579419
v 0.336369 -0.009805 -2.953394
v 0.336369 1.404409 -1.539181
v 0.509256 -0.075148 -2.888051
v 0.509256 1.339065 -1.473837
v 0.660792 -0.163086 -2.800113
v 0.660792 1.251127 -1.385899
v 0.785155 -0.270239 -2.692960
v 0.785155 1.143975 -1.278747
v 0.877565 -0.392488 -2.570711
v 0.877565 1.021725 -1.156497
v 0.934471 -0.525136 -2.438063
v 0.934471 0.889077 -1.023849
v 0.953685 -0.663086 -2.300113
v 0.953685 0.751127 -0.885899
v 0.934471 -0.801036 -2.162163
v 0.934471 0.613178 -0.747950
v 0.877565 -0.933684 -2.029515
v 0.877565 0.480529 -0.615301
v 0.785155 -1.055934 -1.907265
v 0.785155 0.358280 -0.493052
v 0.660792 -1.163086 -1.800113
v 0.660792 0.251127 -0.385899
v 0.509256 -1.251024 -1.712175
v 0.509256 0.163190 -0.297961
v 0.336369 -1.316368 -1.646831
v 0.336369 0.097846 -0.232618
v 0.148775 -1.356606 -1.606593
v 0.148775 0.057607 -0.192379
v -0.046315 -1.370193 -1.593006
v -0.046315 0.044021 -0.178793
v -0.241405 -1.356606 -1.606593
v -0.241405 0.057608 -0.192379
v -0.428998 -1.316367 -1.646832
v -0.428998 0.097846 -0.232618
v -0.601885 -1.251024 -1.712175
v -0.601885 0.163190 -0.297962
v -0.753422 -1.163086 -1.800113
v -0.753422 0.251128 -0.385900
v -0.877785 -1.055933 -1.907266
v -0.877785 0.358280 -0.493052
v -0.970194 -0.933684 -2.029515
v -0.970194 0.480530 -0.615302
v -1.027100 -0.801035 -2.162164
v -1.027100 0.613178 -0.747950
v -1.046315 -0.663086 -2.300114
v -1.046315 0.751128 -0.885900
v -1.027100 -0.525136 -2.438063
v -1.027100 0.889078 -1.023850
v -0.970194 -0.392487 -2.570712
v -0.970194 1.021726 -1.156498
v -0.877784 -0.270238 -2.692961
v -0.877784 1.143975 -1.278748
v -0.753420 -0.163086 -2.800113
v -0.753420 1.251128 -1.385900
v -0.601884 -0.075148 -2.888051
v -0.601884 1.339066 -1.473838
v -0.428997 -0.009804 -2.953395
v -0.428997 1.404409 -1.539181
v -0.241403 0.030434 -2.993633
v -0.241403 1.444648 -1.579419
vn 0.0980 0.7037 -0.7037
vn 0.2903 0.6767 -0.6767
vn 0.4714 0.6236 -0.6236
vn 0.6344 0.5466 -0.5466
vn 0.7730 0.4486 -0.4486
vn 0.8819 0.3333 -0.3333
vn 0.9569 0.2053 -0.2053
vn 0.9952 0.0693 -0.0693
vn 0.9952 -0.0693 0.0693
vn 0.9569 -0.2053 0.2053
vn 0.8819 -0.3333 0.3333
vn 0.7730 -0.4486 0.4486
vn 0.6344 -0.5466 0.5466
vn 0.4714 -0.6236 0.6236
vn 0.2903 -0.6767 0.6767
vn 0.0980 -0.7037 0.7037
vn -0.0980 -0.7037 0.7037
vn -0.2903 -0.6767 0.6767
vn -0.4714 -0.6236 0.6236
vn -0.6344 -0.5466 0.5466
vn -0.7730 -0.4486 0.4486
vn -0.8819 -0.3333 0.3333
vn -0.9569 -0.2053 0.2053
vn -0.9952 -0.0693 0.0693
vn -0.9952 0.0693 -0.0693
vn -0.9569 0.2053 -0.2053
vn -0.8819 0.3333 -0.3333
vn -0.7730 0.4486 -0.4486
vn -0.6344 0.5466 -0.5466
vn -0.4714 0.6236 -0.6236
vn 0.0000 0.7071 0.7071
vn -0.2903 0.6767 -0.6767
vn -0.0980 0.7037 -0.7037
vn 0.0000 -0.7071 -0.7071
usemtl None
s off
f 65//35 66//35 68//35 67//35
f 67//36 68//36 70//36 69//36
f 69//37 70//37 72//37 71//37
f 71//38 72//38 74//38 73//38
f 73//39 74//39 76//39 75//39
f 75//40 76//40 78//40 77//40
f 77//41 78//41 80//41 79//41
f 79//42 80//42 82//42 81//42
f 81//43 82//43 84//43 83//43
f 83//44 84//44 86//44 85//44
f 85//45 86//45 88//45 87//45
f 87//46 88//46 90//46 89//46
f 89//47 90//47 92//47 91//47
f 91//48 92//48 94//48 93//48
f 93//49 94//49 96//49 95//49
f 95//50 96//50 98//50 97//50
f 97//51 98//51 100//51 99//51
f 99//52 100//52 102//52 101//52
f 101//53 102//53 104//53 103//53
f 103//54 104//54 106//54 105//54
f 105//55 106//55 108//55 107//55
f 107//56 108//56 110//56 109//56
f 109//57 110//57 112//57 111//57
f 111//58 112//58 114//58 113//58
f 113//59 114//59 116//59 115//59
f 115//60 116//60 118//60 117//60
f 117//61 118//61 120//61 119//61
f 119//62 120//62 122//62 121//62
f 121//63 122//63 124//63 123//63
f 123//64 124//64 126//64 125//64
f 68//65 66//65 128//65 126//65 124//65 122//65 120//65 118//65 116//65 114//65 112//65 110//65 108//65 106//65 104//65 102//65 100//65 98//65 96//65 94//65 92//65 90//65 88//65 86//65 84//65 82//65 80//65 78//65 76//65 74//65 72//65 70//65
f 125//66 126//66 128//66 127//66
f 127//67 128//67 66//67 65//67
f 65//68 67//68 69//68 71//68 73//68 75//68 77//68 79//68 81//68 83//68 85//68 87//68 89//68 91//68 93//68 95//68 97//68 99//68 101//68 103//68 105//68 107//68 109//68 111//68 113//68 115//68 117//68 119//68 121//68 123//68 125//68 127//68
o Cone
v 0.547654 1.822468 -0.540709
v 2.079743 0.536893 0.059290
v 0.472413 1.732799 -0.529181
v 0.400063 1.646576 -0.495037
v 0.333386 1.567113 -0.439591
v 0.274942 1.497463 -0.364974
v 0.226979 1.440302 -0.274052
v 0.191339 1.397828 -0.170320
v 0.169392 1.371673 -0.057764
v 0.161981 1.362841 0.059290
v 0.169392 1.371673 0.176345
v 0.191339 1.397828 0.288900
v 0.226979 1.440302 0.392633
v 0.274942 1.497463 0.483555
v 0.333386 1.567113 0.558172
v 0.400064 1.646576 0.613618
v 0.472413 1.732799 0.647762
v 0.547654 1.822468 0.659291
v 0.622895 1.912137 0.647762
v 0.695245 1.998359 0.613618
v 0.761922 2.077823 0.558172
v 0.820366 2.147473 0.483554
v 0.868329 2.204634 0.392632
v 0.903969 2.247108 0.288900
v 0.925916 2.273263 0.176344
v 0.933326 2.282094 0.059290
v 0.925916 2.273263 -0.057764
v 0.903969 2.247107 -0.170320
v 0.868329 2.204633 -0.274052
v 0.820365 2.147472 -0.364974
v 0.761922 2.077822 -0.439592
v 0.695244 1.998359 -0.495038
v 0.622894 1.912136 -0.529181
vn 0.1588 -0.2558 -0.9536
vn 0.0404 -0.3970 -0.9169
vn -0.0712 -0.5299 -0.8451
vn -0.1716 -0.6496 -0.7407
vn -0.2570 -0.7513 -0.6079
vn -0.3240 -0.8312 -0.4517
vn -0.3703 -0.8863 -0.2782
vn -0.3938 -0.9144 -0.0939
vn -0.3938 -0.9144 0.0939
vn -0.3703 -0.8863 0.2782
vn -0.3240 -0.8312 0.4517
vn -0.2570 -0.7513 0.6079
vn -0.1716 -0.6496 0.7407
vn -0.0712 -0.5299 0.8451
vn 0.0404 -0.3970 0.9169
vn 0.1588 -0.2558 0.9536
vn 0.2795 -0.1119 0.9536
vn 0.3979 0.0292 0.9169
vn 0.5095 0.1621 0.8451
vn 0.6099 0.2818 0.7407
vn 0.6953 0.3835 0.6079
vn 0.7623 0.4635 0.4517
vn 0.8086 0.5185 0.2782
vn 0.8321 0.5466 0.0939
vn 0.8321 0.5466 -0.0939
vn 0.8085 0.5185 -0.2782
vn 0.7623 0.4635 -0.4517
vn 0.6953 0.3835 -0.6079
vn 0.6099 0.2818 -0.7407
vn 0.5095 0.1621 -0.8451
vn 0.3979 0.0292 -0.9169
vn 0.2795 -0.1119 -0.9536
vn -0.7660 0.6428 -0.0000
usemtl None
s off
f 129//69 130//69 131//69
f 131//70 130//70 132//70
f 132//71 130//71 133//71
f 133//72 130//72 134//72
f 134//73 130//73 135//73
f 135//74 130//74 136//74
f 136//75 130//75 137//75
f 137//76 130//76 138//76
f 138//77 130//77 139//77
f 139//78 130//78 140//78
f 140//79 130//79 141//79
f 141//80 130//80 142//80
f 142//81 130//81 143//81
f 143//82 130//82 144//82
f 144//83 130//83 145//83
f 145//84 130//84 146//84
f 146//85 130//85 147//85
f 147//86 130//86 148//86
f 148//87 130//87 149//87
f 149//88 130//88 150//88
f 150//89 130//89 151//89
f 151//90 130//90 152//90
f 152//91 130//91 153//91
f 153//92 130//92 154//92
f 154//93 130//93 155//93
f 155//94 130//94 156//94
f 156//95 130//95 157//95
f 157//96 130//96 158//96
f 158//97 130//97 159//97
f 159//98 130//98 160//98
f 160//99 130//99 161//99
f 161//100 130//100 129//100
f 129//101 131//101 132//101 133//101 134//101 135//101 136//101 137//101 138//101 139//101 140//101 141//101 142//101 143//101 144//101 145//101 146//101 147//101 148//101 149//101 150//101 151//101 152//101 153//101 154//101 155//101 156//101 157//101 158//101 159//101 160//101 161//101
o Icosphere
v 0.000000 1.139786 0.000000
v 0.723607 1.692567 0.525725
v -0.276388 1.692566 0.850649
v -0.894426 1.692571 0.000000
v -0.276388 1.692566 -0.850649
v 0.723607 1.692567 -0.525725
v 0.276388 2.587006 0.850649
v -0.723607 2.587006 0.525725
v -0.723607 2.587006 -0.525725
v 0.276388 2.587006 -0.850649
v 0.894426 2.587002 0.000000
v 0.000000 3.139786 0.000000
v -0.162456 1.289132 0.499995
v 0.425323 1.289132 0.309011
v 0.262869 1.614049 0.809012
v 0.850648 1.614050 0.000000
v 0.425323 1.289132 -0.309011
v -0.525730 1.289135 0.000000
v -0.688189 1.614050 0.499997
v -0.162456 1.289132 -0.499995
v -0.688189 1.614050 -0.499997
v 0.262869 1.614049 -0.809012
v 0.951058 2.139786 0.309013
v 0.951058 2.139786 -0.309013
v 0.000000 2.139786 1.000000
v 0.587786 2.139786 0.809017
v -0.951058 2.139786 0.309013
v -0.587786 2.139786 0.809017
v -0.587786 2.139786 -0.809017
v -0.951058 2.139786 -0.309013
v 0.587786 2.139786 -0.809017
v 0.000000 2.139786 -1.000000
v 0.688189 2.665523 0.499997
v -0.262869 2.665524 0.809012
v -0.850648 2.665522 0.000000
v -0.262869 2.665524 -0.809012
v 0.688189 2.665523 -0.499997
v 0.162456 2.990441 0.499995
v 0.525730 2.990438 0.000000
v -0.425323 2.990440 0.309011
v -0.425323 2.990440 -0.309011
v 0.162456 2.990441 -0.499995
vn 0.1024 -0.9435 0.3151
vn 0.7002 -0.6617 0.2680
vn -0.2680 -0.9435 0.1947
vn -0.2680 -0.9435 -0.1947
vn 0.1024 -0.9435 -0.3151
vn 0.9050 -0.3304 0.2680
vn 0.0247 -0.3304 0.9435
vn -0.8897 -0.3304 0.3151
vn -0.5746 -0.3304 -0.7488
vn 0.5346 -0.3304 -0.7779
vn 0.8026 -0.1256 0.5831
vn -0.3066 -0.1256 0.9435
vn -0.9921 -0.1256 0.0000
vn -0.3066 -0.1256 -0.9435
vn 0.8026 -0.1256 -0.5831
vn 0.4089 0.6617 0.6284
vn -0.4713 0.6617 0.5831
vn -0.7002 0.6617 -0.2680
vn 0.0385 0.6617 -0.7488
vn 0.7240 0.6617 -0.1947
vn 0.2680 0.9435 -0.1947
vn 0.4911 0.7947 -0.3568
vn 0.4089 0.6617 -0.6284
vn -0.1024 0.9435 -0.3151
vn -0.1876 0.7947 -0.5773
vn -0.4713 0.6617 -0.5831
vn -0.3313 0.9435 0.0000
vn -0.6071 0.7947 0.0000
vn -0.7002 0.6617 0.2680
vn -0.1024 0.9435 0.3151
vn -0.1876 0.7947 0.5773
vn 0.0385 0.6617 0.7488
vn 0.2680 0.9435 0.1947
vn 0.4911 0.7947 0.3568
vn 0.7240 0.6617 0.1947
vn 0.8897 0.3304 -0.3151
vn 0.7947 0.1876 -0.5773
vn 0.5746 0.3304 -0.7488
vn -0.0247 0.3304 -0.9435
vn -0.3035 0.1876 -0.9342
vn -0.5346 0.3304 -0.7779
vn -0.9050 0.3304 -0.2680
vn -0.9822 0.1876 0.0000
vn -0.9050 0.3304 0.2680
vn -0.5346 0.3304 0.7779
vn -0.3035 0.1876 0.9342
vn -0.0247 0.3304 0.9435
vn 0.5746 0.3304 0.7488
vn 0.7947 0.1876 0.5773
vn 0.8897 0.3304 0.3151
vn 0.3066 0.1256 -0.9435
vn 0.3035 -0.1876 -0.9342
vn 0.0247 -0.3304 -0.9435
vn -0.8026 0.1256 -0.5831
vn -0.7947 -0.1876 -0.5773
vn -0.8897 -0.3304 -0.3151
vn -0.8026 0.1256 0.5831
vn -0.7947 -0.1876 0.5773
vn -0.5746 -0.3304 0.7488
vn 0.3066 0.1256 0.9435
vn 0.3035 -0.1876 0.9342
vn 0.5346 -0.3304 0.7779
vn 0.9921 0.1256 0.0000
vn 0.9822 -0.1876 0.0000
vn 0.9050 -0.3304 -0.2680
vn 0.4713 -0.6617 -0.5831
vn 0.1876 -0.7947 -0.5773
vn -0.0385 -0.6617 -0.7488
vn -0.4089 -0.6617 -0.6284
vn -0.4911 -0.7947 -0.3568
vn -0.7240 -0.6617 -0.1947
vn -0.7240 -0.6617 0.1947
vn -0.4911 -0.7947 0.3568
vn -0.4089 -0.6617 0.6284
vn 0.7002 -0.6617 -0.2680
vn 0.6071 -0.7947 0.0000
vn 0.3313 -0.9435 0.0000
vn -0.0385 -0.6617 0.7488
vn 0.1876 -0.7947 0.5773
vn 0.4713 -0.6617 0.5831
usemtl None
s off
f 162//102 175//102 174//102
f 163//103 175//103 177//103
f 162//104 174//104 179//104
f 162//105 179//105 181//105
f 162//106 181//106 178//106
f 163//107 177//107 184//107
f 164//108 176//108 186//108
f 165//109 180//109 188//109
f 166//110 182//110 190//110
f 167//111 183//111 192//111
f 163//112 184//112 187//112
f 164//113 186//113 189//113
f 165//114 188//114 191//114
f 166//115 190//115 193//115
f 167//116 192//116 185//116
f 168//117 194//117 199//117
f 169//118 195//118 201//118
f 170//119 196//119 202//119
f 171//120 197//120 203//120
f 172//121 198//121 200//121
f 200//122 203//122 173//122
f 200//123 198//123 203//123
f 198//124 171//124 203//124
f 203//125 202//125 173//125
f 203//126 197//126 202//126
f 197//127 170//127 202//127
f 202//128 201//128 173//128
f 202//129 196//129 201//129
f 196//130 169//130 201//130
f 201//131 199//131 173//131
f 201//132 195//132 199//132
f 195//133 168//133 199//133
f 199//134 200//134 173//134
f 199//135 194//135 200//135
f 194//136 172//136 200//136
f 185//137 198//137 172//137
f 185//138 192//138 198//138
f 192//139 171//139 198//139
f 193//140 197//140 171//140
f 193//141 190//141 197//141
f 190//142 170//142 197//142
f 191//143 196//143 170//143
f 191//144 188//144 196//144
f 188//145 169//145 196//145
f 189//146 195//146 169//146
f 189//147 186//147 195//147
f 186//148 168//148 195//148
f 187//149 194//149 168//149
f 187//150 184//150 194//150
f 184//151 172//151 194//151
f 192//152 193//152 171//152
f 192//153 183//153 193//153
f 183//154 166//154 193//154
f 190//155 191//155 170//155
f 190//156 182//156 191//156
f 182//157 165//157 191//157
f 188//158 189//158 169//158
f 188//159 180//159 189//159
f 180//160 164//160 189//160
f 186//161 187//161 168//161
f 186//162 176//162 187//162
f 176//163 163//163 187//163
f 184//164 185//164 172//164
f 184//165 177//165 185//165
f 177//166 167//166 185//166
f 178//167 183//167 167//167
f 178//168 181//168 183//168
f 181//169 166//169 183//169
f 181//170 182//170 166//170
f 181//171 179//171 182//171
f 179//172 165//172 182//172
f 179//173 180//173 165//173
f 179//174 174//174 180//174
f 174//175 164//175 180//175
f 177//176 178//176 167//176
f 177//177 175//177 178//177
f 175//178 162//178 178//178
f 174//179 176//179 164//179
f 174//180 175//180 176//180
f 175//181 163//181 176//181
o Cube
v -1.000000 -1.000000 1.000000
v -1.000000 1.000000 1.000000
v -1.000000 -1.000000 -1.000000
v -1.000000 1.000000 -1.000000
v 1.000000 -1.000000 1.000000
v 1.000000 1.000000 1.000000
v 1.000000 -1.000000 -1.000000
v 1.000000 1.000000 -1.000000
vn -1.0000 0.0000 0.0000
vn 0.0000 0.0000 -1.0000
vn 1.0000 0.0000 0.0000
vn 0.0000 0.0000 1.0000
vn 0.0000 -1.0000 0.0000
vn 0.0000 1.0000 0.0000
usemtl None
s off
f 204//182 205//182 207//182 206//182
f 206//183 207//183 211//183 210//183
f 210//184 211//184 209//184 208//184
f 208//185 209//185 205//185 204//185
f 206//186 210//186 208//186 204//186
f 211//187 207//187 205//187 209//187
